<svg width="14" height="14" viewBox="0 0 14 14" fill="none" xmlns="http://www.w3.org/2000/svg">
<path d="M13.0392 4.00065H10.2076C10.353 3.90571 10.4907 3.7987 10.6194 3.68067C10.8136 3.50063 10.97 3.28085 11.0788 3.03507C11.1877 2.78928 11.2467 2.52278 11.2522 2.25219C11.2606 1.95453 11.2105 1.65822 11.1051 1.3814C10.9996 1.10458 10.8409 0.853089 10.6388 0.642321C10.4367 0.431554 10.1953 0.265953 9.92955 0.155662C9.66377 0.0453703 9.37916 -0.00728901 9.09314 0.000909326C8.83315 0.00657716 8.57707 0.0679822 8.34091 0.181288C8.10475 0.294594 7.89358 0.457367 7.72059 0.659438C7.40269 1.04987 7.15824 1.49909 7 1.98364C6.8421 1.49945 6.59812 1.05049 6.28078 0.660152C6.1077 0.457777 5.89633 0.294768 5.65992 0.181332C5.4235 0.0678947 5.16714 0.00647218 4.90686 0.000909326C4.62068 -0.00768071 4.33582 0.0446648 4.06977 0.154735C3.80371 0.264806 3.56206 0.430281 3.35965 0.641013C3.15723 0.851744 2.99831 1.10329 2.89264 1.38022C2.78696 1.65715 2.73675 1.95363 2.7451 2.25148C2.75054 2.52206 2.80955 2.78857 2.91841 3.03435C3.02728 3.28014 3.18368 3.49991 3.37784 3.67996C3.50646 3.79815 3.64418 3.90517 3.78961 3.99994H0.960785C0.834555 3.99993 0.709562 4.02582 0.59295 4.07612C0.476337 4.12641 0.370391 4.20013 0.281165 4.29306C0.191939 4.38599 0.121182 4.49631 0.0729385 4.61771C0.024695 4.73911 -8.9919e-05 4.86921 2.45121e-07 5.00058V7.28615C2.45121e-07 7.55135 0.101225 7.80569 0.281408 7.99321C0.46159 8.18074 0.705969 8.28609 0.960785 8.28609H1.09804V13.0001C1.09804 13.2653 1.19926 13.5196 1.37945 13.7071C1.55963 13.8946 1.80401 14 2.05882 14H11.9412C12.196 14 12.4404 13.8946 12.6206 13.7071C12.8007 13.5196 12.902 13.2653 12.902 13.0001V8.28609H13.0392C13.294 8.28609 13.5384 8.18074 13.7186 7.99321C13.8988 7.80569 14 7.55135 14 7.28615V5.00058C14 4.73539 13.8988 4.48105 13.7186 4.29352C13.5384 4.106 13.294 4.00065 13.0392 4.00065ZM7.53324 3.21499C7.68765 2.34933 7.9649 1.66152 8.33549 1.22583C8.43466 1.11192 8.5553 1.02048 8.6899 0.957199C8.82449 0.893917 8.97016 0.860149 9.11784 0.857997H9.15559C9.32632 0.858017 9.49532 0.893685 9.65257 0.962889C9.80983 1.03209 9.95215 1.13343 10.0711 1.26089C10.1901 1.38836 10.2832 1.53937 10.3451 1.70498C10.407 1.87059 10.4363 2.04743 10.4314 2.22505C10.429 2.37891 10.3963 2.53061 10.3351 2.6707C10.2739 2.81079 10.1857 2.93626 10.0759 3.03928C9.3402 3.71495 8.09255 3.91708 7.4351 3.97565C7.45226 3.76924 7.48039 3.5064 7.53324 3.21499ZM3.94265 1.24726C4.18218 0.998868 4.50627 0.85897 4.84441 0.857997H4.88216C5.02999 0.860421 5.17575 0.894524 5.31036 0.958179C5.44496 1.02183 5.56552 1.11368 5.66451 1.22797C6.31373 1.99364 6.50794 3.29212 6.56422 3.97637C6.36588 3.95851 6.11333 3.9278 5.83608 3.87423C5.00431 3.71495 4.34343 3.42497 3.9248 3.03857C3.81481 2.9358 3.7264 2.8105 3.66511 2.67051C3.60382 2.53052 3.57097 2.37887 3.56863 2.22505C3.56389 2.04418 3.59461 1.86419 3.65892 1.69608C3.72322 1.52797 3.81976 1.37526 3.94265 1.24726ZM0.82353 7.28615V5.00058C0.82353 4.9627 0.83799 4.92637 0.863731 4.89958C0.889471 4.87279 0.924382 4.85774 0.960785 4.85774H6.58824V7.429H0.960785C0.924382 7.429 0.889471 7.41395 0.863731 7.38716C0.83799 7.36037 0.82353 7.32404 0.82353 7.28615ZM1.92157 13.0001V8.28609H6.58824V13.1429H2.05882C2.02242 13.1429 1.98751 13.1279 1.96177 13.1011C1.93603 13.0743 1.92157 13.038 1.92157 13.0001ZM12.0784 13.0001C12.0784 13.038 12.064 13.0743 12.0382 13.1011C12.0125 13.1279 11.9776 13.1429 11.9412 13.1429H7.41177V8.28609H12.0784V13.0001ZM13.1765 7.28615C13.1765 7.32404 13.162 7.36037 13.1363 7.38716C13.1105 7.41395 13.0756 7.429 13.0392 7.429H7.41177V4.85774H13.0392C13.0756 4.85774 13.1105 4.87279 13.1363 4.89958C13.162 4.92637 13.1765 4.9627 13.1765 5.00058V7.28615Z" fill="white"/>
</svg>
